Coordinates
version=1
nRows=14
nColumns=36
inDegrees=yes

Units are S.I. units (second, meters, Newtons, ...)
If the header above contains a line with 'inDegrees', this indicates whether rotational values are in degrees (yes) or radians (no).

endheader
time	pelvis_tilt	pelvis_list	pelvis_rotation	pelvis_tx	pelvis_ty	pelvis_tz	hip_flexion_r	hip_adduction_r	hip_rotation_r	knee_angle_r	knee_angle_r_beta	ankle_angle_r	subtalar_angle_r	mtp_angle_r	hip_flexion_l	hip_adduction_l	hip_rotation_l	knee_angle_l	knee_angle_l_beta	ankle_angle_l	subtalar_angle_l	mtp_angle_l	lumbar_extension	lumbar_bending	lumbar_rotation	arm_flex_r	arm_add_r	arm_rot_r	elbow_flex_r	pro_sup_r	arm_flex_l	arm_add_l	arm_rot_l	elbow_flex_l	pro_sup_l
     15.13333330	     -0.70801111	      0.46892885	     -6.31739834	      0.66326346	      0.91624803	      0.79555416	      0.94809096	      3.27338524	      1.25991423	      9.81502128	      0.17130444	     13.73976570	     -3.58838143	     -7.49999987	     24.40573183	     -1.90487577	     -7.65596994	     39.60889905	      0.69130570	      8.98821726	    -10.45416926	     -7.49999987	     -5.77290359	      0.37511594	      7.45452048	     10.89709356	    -15.71905637	      9.93472767	     28.37173178	     78.12106280	      0.74647591	     -9.23894952	     11.69273543	     21.14437852	     77.25514531
     15.15000000	     -0.81236836	      0.55050133	     -6.73035580	      0.66132550	      0.91304527	      0.79515783	     -0.06515255	      3.22628048	      1.27973096	      9.16927808	      0.16003409	     14.63852678	     -3.25398855	     -7.49999987	     25.36624226	     -2.03182725	     -7.93207894	     36.26629253	      0.63296621	      8.88320295	     -9.61095185	     -7.49999987	     -5.68693840	      0.29724765	      7.70123803	     11.53841626	    -15.88360405	      9.90190879	     29.07453698	     78.65541466	      0.69596066	     -9.20653773	     11.50733984	     21.19707018	     77.58755903
     15.16666670	     -0.69110474	      0.51561808	     -7.08708234	      0.66032412	      0.91103396	      0.79496939	     -1.34682229	      3.22024300	      1.12588090	      8.56384932	      0.14946737	     15.68625598	     -2.51618908	     -7.49999987	     26.03468156	     -2.26637243	     -8.11363690	     33.30461889	      0.58127526	      8.84505278	     -8.65462856	     -7.49999987	     -5.98359320	      0.36539786	      7.80237780	     11.97464553	    -15.85743769	      7.73077711	     30.33743302	     86.07271292	      0.10399767	     -8.91118572	      7.74594386	     22.36645625	     82.79092444
     15.18333330	     -0.70044552	      0.56328086	     -7.42718172	      0.66002055	      0.90928417	      0.79495680	     -2.44515714	      3.09076581	      0.93868580	      8.11285670	      0.14159606	     16.51683844	     -1.76261933	     -7.49999987	     26.69481019	     -2.41371784	     -8.20270689	     30.32671462	      0.52930102	      8.71841266	     -7.65921480	     -7.49999987	     -5.93284147	      0.34424586	      8.07301565	     12.17652110	    -16.06168833	      7.67667689	     31.50452345	     85.28005274	     -0.19984661	     -8.86373816	      7.11246429	     22.70852323	     82.00166126
     15.20000000	     -1.00740363	      0.62538062	     -7.85355296	      0.66014075	      0.90807355	      0.79509934	     -3.19390300	      2.94918333	      1.11802477	      7.81877774	      0.13646342	     16.96411322	     -1.42773515	     -7.49999987	     27.46068758	     -2.60925717	     -8.32572503	     27.26519303	      0.47586739	      8.60319212	     -6.52014588	     -7.49999987	     -5.42693728	      0.36499737	      8.40154890	     12.29497680	    -16.26347368	      7.98410992	     32.07142508	     85.17625428	     -0.69127451	     -8.77741650	      6.17304287	     22.91969422	     81.94121198
     15.21666670	     -1.28965066	      0.63740316	     -8.14636333	      0.66039226	      0.90852124	      0.79535537	     -3.90984438	      2.80844436	      0.98123522	      7.79276056	      0.13600933	     17.34422179	     -0.83020134	     -7.49999987	     27.92341598	     -2.76452226	     -8.27732009	     24.15574424	      0.42159727	      8.59053069	     -5.22137291	     -7.49999987	     -4.86849988	      0.47522767	      8.47275602	     12.33977316	    -16.16879265	      8.04436693	     32.48903962	     85.14936490	     -1.20220384	     -8.65168521	      5.27509391	     22.91704530	     82.06794135
     15.23333330	     -1.71466345	      0.69013823	     -8.35335961	      0.66033896	      0.90930097	      0.79559772	     -4.42689951	      2.64713502	      0.96394987	      7.92884684	      0.13838448	     17.55677658	     -0.53560300	     -7.49999987	     28.36079267	     -2.84774143	     -8.06572579	     21.36259403	      0.37284760	      8.38495607	     -4.28657320	     -7.49999987	     -4.09064494	      0.54103275	      8.55792196	     12.10664819	    -16.02714962	      8.03098188	     32.65924155	     85.12822263	     -1.64801203	     -8.65344602	      5.12675423	     22.86314453	     82.04871261
     15.25000000	     -2.11382830	      0.85614900	     -8.63014961	      0.65933734	      0.90870418	      0.79539275	     -4.82066616	      2.34230163	      0.92228492	      8.33631373	      0.14549612	     17.91617228	      0.17668225	     -7.49999987	     28.67170276	     -2.87187114	     -8.01352988	     19.04985210	      0.33248264	      8.34411841	     -3.29496221	     -7.49999987	     -3.35411239	      0.40613681	      8.75324255	     11.72103594	    -15.76328756	      7.95095468	     32.61774025	     85.11364358	     -1.94617476	     -8.67932382	      4.80444803	     22.68869839	     82.02092566
     15.26666670	     -2.49628736	      1.01144252	     -8.82734810	      0.65806318	      0.90686284	      0.79412083	     -5.16656058	      2.05334328	      0.92051330	      8.83874692	      0.15426524	     18.30678644	      0.71157531	     -7.49999987	     28.97969593	     -2.85143104	     -7.84940167	     17.35975987	      0.30298497	      8.30557557	     -2.55117500	     -7.49999987	     -2.61673234	      0.32367721	      8.86573115	     11.26667283	    -15.52406105	      7.89137585	     32.49213627	     85.04476209	     -2.24041099	     -8.69361364	      4.57898882	     22.59347683	     81.95183572
     15.28333330	     -3.01348013	      1.28148820	     -9.12452604	      0.65858127	      0.90295467	      0.79234851	     -5.14589638	      1.59798791	      0.44238714	      9.69693245	      0.16924340	     19.28139709	      2.34268878	     -7.49999987	     29.43526604	     -2.80319903	     -7.99310695	     16.38804242	      0.28602530	      8.51410864	     -1.62084938	     -7.49999987	     -1.52766517	      0.07417167	      9.28289862	     10.69882502	    -15.13221224	      7.42400020	     31.73922726	     84.94755614	     -2.35676407	     -8.63012114	      3.78100418	     22.05873078	     81.89478044
     15.30000000	     -3.29252569	      1.63425265	     -9.38901420	      0.66053216	      0.89842111	      0.79047326	     -5.34852338	      1.04625812	      0.48635855	     10.50081969	      0.18327388	     19.96729425	      2.72856937	     -7.49999987	     29.56477261	     -2.53974843	     -8.03723614	     15.95510630	      0.27846914	      8.42896288	     -1.37401600	     -7.49999987	     -0.75219324	     -0.28428911	      9.55216828	     10.18744415	    -14.83521635	      7.31662350	     31.33597228	     84.90208673	     -2.61699498	     -8.71525774	      3.48302917	     21.91050571	     81.87517106
     15.31666670	     -3.57798136	      1.95678234	     -9.66390799	      0.66215488	      0.89490245	      0.78945601	     -5.45945281	      0.49726630	      0.55582910	     11.39738268	      0.19892185	     20.75833184	      3.21216674	     -7.49999987	     29.67190410	     -2.23292331	     -7.98044462	     16.18215161	      0.28243183	      8.33197949	     -1.26795640	     -7.49999987	      0.10498719	     -0.59645645	      9.89080371	      9.73909227	    -14.54467095	      7.10716981	     30.54681697	     84.92627113	     -2.72103504	     -8.75105605	      3.18345336	     21.52839138	     81.97489891
     15.33333330	     -3.69668909	      2.30097133	     -9.98296807	      0.66298029	      0.89396987	      0.79003254	     -5.59634045	     -0.09107463	      0.96580650	     12.46382634	      0.21753481	     21.32340397	      3.23881509	     -7.49999987	     29.49185660	     -1.83731741	     -7.88722759	     16.77248219	      0.29273504	      7.94099753	     -1.34438990	     -7.49999987	      0.68639312	     -0.98118138	     10.12152719	      9.40915377	    -14.22488142	      7.02873442	     29.97085396	     84.94624794	     -2.75901304	     -8.92292512	      3.10896644	     21.23359613	     82.06353949
     15.35000000	     -4.06200682	      2.60034749	    -10.28411587	      0.66415906	      0.89474237	      0.79107045	     -5.33796410	     -0.59701942	      1.41222153	     13.73042097	      0.23964105	     21.48998304	      3.12744522	     -7.49999987	     29.52106445	     -1.50030520	     -7.70614834	     17.66315010	      0.30828013	      7.22895119	     -1.74618071	     -7.49999987	      1.67218983	     -1.31509034	     10.51781803	      9.03014627	    -13.72855259	      6.72586214	     28.53621813	     84.98895087	     -2.61291392	     -9.15035850	      3.28625798	     20.39553294	     82.41853464
